<?xml version="1.0" encoding="UTF-8" standalone="no"?><!DOCTYPE svg PUBLIC "-//W3C//DTD SVG 1.1//EN" "http://www.w3.org/Graphics/SVG/1.1/DTD/svg11.dtd"><svg width="100%" height="100%" viewBox="0 0 2042 2015" version="1.1" xmlns="http://www.w3.org/2000/svg" xmlns:xlink="http://www.w3.org/1999/xlink" xml:space="preserve" xmlns:serif="http://www.serif.com/" style="fill-rule:evenodd;clip-rule:evenodd;stroke-linejoin:round;stroke-miterlimit:2;"><rect id="Artboard1" x="0" y="0" width="2041.69" height="2014.29" style="fill:none;"/><g><path d="M244.632,557.021l0.015,-0.001c37.754,-3.553 78.358,2.275 113.432,16.718c47.821,19.693 84.416,54.528 104.392,102.168c3.418,8.151 2,17.527 -3.675,24.302c-2.701,3.225 -6.151,5.604 -9.955,7.003c3.424,3.523 5.724,8.089 6.444,13.116c1.202,8.396 -2.19,16.792 -8.886,21.997l-16.252,12.633c-0.536,0.417 -1.09,0.81 -1.66,1.179c-33.296,21.557 -73.247,28.411 -111.935,20.088c-85.314,-18.351 -146.91,-90.272 -192.135,-159.895c-3.848,-5.923 -4.843,-13.258 -2.712,-19.993c2.131,-6.734 7.163,-12.162 13.718,-14.795c34.801,-13.977 71.994,-21.333 109.209,-24.52Zm1020.34,811.107c2.285,-7.355 8.088,-13.303 15.741,-15.611c9.932,-2.995 20.655,0.839 26.435,9.453c22.359,33.316 33.478,72.993 33.05,113.005c-0.65,60.797 -31.466,123.887 -74.37,166.151c-4.644,4.574 -10.971,7.026 -17.485,6.776c-6.513,-0.25 -12.633,-3.181 -16.912,-8.098c-25.273,-29.041 -42.651,-63.613 -52.897,-100.588c-0.011,-0.04 -0.022,-0.079 -0.033,-0.119c-5.987,-22.054 -7.302,-47.282 -4.828,-70.043c4.549,-41.86 30.215,-75.592 62.324,-100.781c7.786,-6.109 18.554,-6.716 26.978,-1.522c0.694,0.428 1.36,0.888 1.997,1.377Zm537.142,-610.039l0.016,-0.002c12.211,-1.386 25.536,-0.598 37.716,0.48c59.862,5.296 112.481,37.23 160.083,71.581c10.103,7.29 12.807,21.173 6.179,31.722c-4.88,7.767 -13.956,15.137 -20.957,21.118c-28.075,23.979 -58.041,44.554 -92.734,57.785c-54.328,20.715 -111.691,23.067 -165.301,-1.06c-0.215,-0.097 -0.428,-0.196 -0.64,-0.299c-18.39,-8.947 -33.421,-20.181 -49.265,-32.94c-6.56,-5.283 -9.811,-13.66 -8.532,-21.985c0.847,-5.509 3.591,-10.443 7.623,-14.041c-4.37,-2.051 -8.099,-5.434 -10.561,-9.818c-4.544,-8.092 -3.929,-18.095 1.572,-25.569l7.971,-10.829c0.266,-0.361 0.541,-0.714 0.827,-1.059c32.304,-39.031 76.053,-60.33 126.003,-65.084Zm-783.697,-414.545c-2.27,2.939 -5.241,5.356 -8.738,6.982c-8.142,3.785 -17.726,2.627 -24.732,-2.989l-12.281,-9.844c-0.305,-0.244 -0.604,-0.496 -0.897,-0.756c-33.023,-29.277 -52.559,-70.568 -54.749,-114.705c-3.612,-72.791 38.37,-151.716 85.925,-204.452c4.781,-5.302 11.703,-8.157 18.831,-7.767c7.129,0.389 13.699,3.981 17.874,9.773l32.193,44.657c0.169,0.234 0.332,0.47 0.492,0.709c36.212,54.309 61.671,120.574 47.984,186.654c-8.702,42.025 -35.04,74.15 -70.194,97.161c-7.276,4.763 -16.58,5.143 -24.22,0.99c-2.972,-1.616 -5.505,-3.816 -7.488,-6.413Zm-355.867,102.541c-0.562,4.439 -2.382,8.711 -5.377,12.263c-5.722,6.786 -14.766,9.791 -23.412,7.779l-16.419,-3.821c-0.283,-0.066 -0.565,-0.137 -0.846,-0.213c-44.39,-12.074 -82.332,-43.848 -104.924,-83.543l-0.001,-0.002c-36.741,-64.57 -35.476,-144.124 -16.014,-213.817c3.496,-12.521 16.453,-19.863 28.991,-16.43c18.98,5.198 36.986,14.69 53.985,24.432l0.002,0.001c36.807,21.099 67.512,43.337 93.601,77.201c27.776,36.058 46.088,87.498 39.953,133.39l-0,0.003c-2.581,19.287 -8.302,35.011 -16.831,52.478c-3.876,7.937 -11.856,13.048 -20.686,13.251c-4.282,0.097 -8.416,-0.967 -12.022,-2.972Zm-98.516,73.655c1.23,-5.457 3.284,-10.743 6.153,-15.652l0.001,-0.003c8.797,-15.046 22.054,-22.984 38.406,-26.949c1.432,-0.347 2.894,-0.56 4.366,-0.635c11.146,-0.567 21.143,0.531 31.362,5.476l0.004,0.002c14.328,6.936 25.239,19.856 30.031,35.003l0.001,0.002c4.786,15.135 2.936,31.066 -4.93,44.739c-9.035,15.71 -20.121,23.618 -37.22,28.59c-1.945,0.565 -3.955,0.878 -5.98,0.931c-11.47,0.299 -21.872,-1.098 -32.282,-6.38c-15.074,-7.65 -24.877,-21.9 -29.252,-37.747c-0.53,-1.923 -0.957,-3.867 -1.279,-5.822c-1.81,4.194 -4.832,7.855 -8.809,10.442c-6.17,4.015 -13.772,4.877 -20.571,2.535c0.198,1.448 0.263,2.923 0.188,4.407c-0.354,6.987 -3.788,13.458 -9.376,17.669c-3.446,2.597 -8.78,5.197 -15.248,6.916c-8.288,2.202 -19.321,3.327 -24.931,3.802c-47.221,3.999 -88.111,-12.317 -123.792,-42.563c-54.55,-46.243 -88.849,-121.906 -94.466,-192.675c-0.518,-6.536 1.703,-12.994 6.133,-17.828c4.43,-4.834 10.669,-7.609 17.226,-7.662c70.391,-0.565 144.127,18.074 200.006,62.428c29.102,23.098 54.426,56.816 66.025,92.38c4.098,12.567 6.497,25.528 8.234,38.594Zm-354.304,493.517c-0,-0 0.04,-0.003 0.04,-0.003c14.725,-1.171 30.864,0.919 45.184,4.324c38.825,9.232 71.224,33.12 92.018,67.048c0.748,1.222 1.377,2.495 1.884,3.804c18.651,-17.651 41.282,-30.257 66.285,-36.568c-8.52,-4.102 -16.686,-9.2 -24.395,-15.355c-30.929,-24.695 -50.33,-60.977 -54.538,-100.281c-0.174,-1.623 -0.323,-3.244 -0.447,-4.865c-6.834,6.15 -14.466,11.468 -22.301,16.372c-0.31,0.194 -0.624,0.38 -0.943,0.56c-23.421,13.187 -51.318,18.962 -77.988,19.838c-74.535,2.453 -152.516,-39.902 -205.206,-89.538c-4.982,-4.694 -7.684,-11.318 -7.405,-18.157c0.28,-6.84 3.512,-13.222 8.86,-17.494c49.684,-39.685 112.612,-69.795 176.751,-72.422l0.022,-0.001c19.777,-0.962 39.92,0.984 58.985,6.331l0.002,0.001c36.241,10.169 69.139,32.33 90.147,63.596c3.92,-6.594 8.369,-12.941 13.34,-18.987c23.703,-28.824 56.307,-43.277 92.812,-46.722c0.321,-0.031 0.643,-0.054 0.965,-0.071c33.346,-1.774 64.664,6.713 92.227,25.672c21.079,14.499 38.553,33.843 50.017,56.407c2.817,-10.026 7.749,-19.498 14.233,-27.388c15.287,-18.607 34.509,-26.221 57.665,-28.605c0.263,-0.027 0.527,-0.05 0.791,-0.068c5.675,-0.392 11.398,0.05 17.013,1.168c-23.265,-32.409 -43.677,-66.359 -59.5,-103.167c-9.608,-22.35 -17.302,-46.492 -23.875,-69.892c-2.955,-10.52 1.69,-21.693 11.232,-27.017c9.542,-5.324 21.49,-3.409 28.89,4.631c3.902,4.239 7.041,10.343 10.091,15.303c-0,-0 15.719,24.989 15.726,25.001c10.844,16.645 23.213,32.497 35.828,47.833c18.513,22.509 40.415,42.161 64.188,59.204c-1.098,-12.146 -0.352,-24.445 1.483,-35.187c1.508,-8.828 3.813,-17.246 7.769,-24.758c-19.997,-3.723 -38.817,-11.991 -55.227,-24.457c-28.314,-21.508 -49.801,-56.493 -54.413,-91.923c-5.571,-42.816 6.285,-84.166 32.592,-118.226c24.113,-31.224 61.176,-52.803 100.141,-58.253c0.774,-0.156 1.555,-0.273 2.34,-0.351c9.163,-0.908 18.438,-0.737 27.628,0.402l-6.127,-1.19c-0.432,-0.084 -0.862,-0.18 -1.288,-0.288c-46.017,-11.646 -82.077,-44.838 -105.743,-84.817c-39.257,-66.318 -35.163,-153.392 -16.491,-225.138c1.755,-6.746 6.402,-12.373 12.694,-15.373c6.293,-3 13.59,-3.068 19.937,-0.184l2.267,1.03c0.058,0.026 0.116,0.053 0.174,0.08c17.983,8.347 35.547,19.169 52.078,30.086c48.407,31.964 97.638,76.211 117.804,132.31c15.282,42.513 10.15,88.631 -9.057,128.681c-3.746,7.811 -11.468,12.946 -20.121,13.378c-3.157,0.157 -6.254,-0.32 -9.132,-1.35c0.324,5.814 -1.509,11.648 -5.318,16.294c-4.737,5.778 -11.874,8.919 -19.204,8.628c21.504,4.734 42.014,14.623 58.871,28.168c1.555,1.249 3.079,2.521 4.573,3.816c-1.611,-3.499 -2.855,-7.17 -3.677,-10.949l-0.001,-0.002c-3.351,-15.408 -0.04,-32.677 9.034,-45.569c10.515,-14.942 23.154,-20.566 40.416,-23.58c1.236,-0.216 2.486,-0.333 3.74,-0.35c9.775,-0.134 20.399,2.375 28.819,7.529l0.001,0.001c8.134,4.98 15.526,13.409 20.264,22.614c3.783,-2.445 8.219,-3.778 12.794,-3.784l105.409,-0.129c1.221,-0.001 2.432,0.092 3.624,0.275c-6.492,-12.497 -11.656,-25.09 -15.284,-39.018c-11.775,-45.194 -1.247,-94.019 22.358,-133.511c27.591,-46.159 72.43,-80.532 120.384,-103.307c11.425,-5.426 23.567,-11.18 35.85,-14.281c4.822,-1.217 9.905,-0.881 14.525,0.959l1.461,0.582c6.978,2.781 12.218,8.715 14.114,15.984c3.522,13.507 4.902,27.908 6.481,41.767l0.001,0.002c6.631,58.248 5.999,120.083 -22.058,173.299c-24.405,46.292 -63.213,74.488 -112.302,89.532c-8.472,2.596 -17.686,0.232 -23.861,-6.123c-2.429,-2.499 -4.227,-5.449 -5.343,-8.62c-2.689,1.471 -5.686,2.431 -8.853,2.765c-2.639,0.279 -5.253,0.109 -7.751,-0.463c0.213,1.315 0.316,2.654 0.304,4.005l-0.456,47.973c18.839,-14.127 41.309,-21.765 65.674,-24.065c0.321,-0.03 0.643,-0.054 0.965,-0.071c30.685,-1.632 59.502,6.183 84.865,23.628c10.8,7.428 20.568,16.241 28.926,26.178c8.912,-9.185 19.432,-14.027 33.14,-16.116c1.122,-0.171 2.256,-0.261 3.391,-0.269c4.404,-0.031 8.586,0.167 12.656,0.793c-1.531,-1.164 -2.932,-2.524 -4.163,-4.065c-2.014,-2.522 -3.456,-5.383 -4.296,-8.395c-2.421,0.629 -4.963,0.879 -7.542,0.704c-9.116,-0.62 -17.056,-6.44 -20.391,-14.947c-19.825,-50.574 -16.573,-101.377 2.921,-151.611c26.479,-68.229 91.258,-110.596 155.311,-138.992c5.273,-2.338 11.219,-2.666 16.717,-0.921l1.425,0.452c6.869,2.179 12.368,7.375 14.932,14.11c6.012,15.787 9.341,32.229 11.903,48.888c10.323,67.122 5.692,133.827 -36.303,190.24c-27.499,36.94 -67.121,62.424 -112.801,69.103c-0.876,0.128 -1.752,0.207 -2.625,0.236c0.262,0.133 0.523,0.269 0.785,0.408c13.787,7.322 24.467,21.709 28.216,36.715l0.002,0.006c3.294,13.197 1.611,27.198 -4.523,39.219c7.622,-4.534 16.177,-7.588 25.392,-9.618c1.373,-0.302 2.771,-0.482 4.177,-0.535c12.49,-0.479 23.25,0.161 34.782,4.491c-3.233,-4.162 -5.053,-9.376 -4.966,-14.868c0.702,-44.5 13.427,-84.676 42.464,-119.095c45.154,-53.52 110.598,-80.931 179.133,-86.898l-0.35,0.068c3.965,-0.488 8.594,-0.558 11.846,-0.679c0.304,-0.011 0.609,-0.016 0.914,-0.016l32.752,0.05c7.075,0.011 13.772,3.192 18.251,8.669c4.478,5.477 6.266,12.672 4.872,19.608l-10.513,52.298c-0.116,0.577 -0.253,1.149 -0.412,1.715c-16.692,59.606 -55.125,119.871 -110.495,150.299c-38.864,21.357 -82.475,31.192 -126.052,18.493c2.604,4.16 4.813,8.687 6.595,13.594c6.53,17.976 5.33,39.067 -3.009,56.279c-9.063,18.708 -23.301,29.268 -41.545,36.113c0.194,-0.027 0.388,-0.054 0.582,-0.081c0.762,-0.154 1.532,-0.27 2.306,-0.348c34.274,-3.465 69.606,8.356 97.496,27.68c2.053,1.422 4.073,2.893 6.059,4.412c0.22,-0.555 0.461,-1.101 0.723,-1.637c-1.843,-0.806 -3.599,-1.854 -5.218,-3.138c-6.791,-5.387 -10.086,-14.062 -8.585,-22.599c4.118,-23.409 14.814,-46.594 30.06,-64.777c35.261,-42.055 82.761,-62.231 136.374,-66.818l0.046,-0.004c33.614,-3.193 67.461,2.288 99.927,10.584c18.406,4.704 36.843,10.098 54.141,18.055c6.801,3.129 11.717,9.297 13.249,16.625c1.533,7.328 -0.499,14.949 -5.477,20.541c-8.097,9.098 -14.203,19.731 -21.616,29.36l-0.001,0.001c-20.318,26.391 -43.781,51.841 -70.14,72.301c-39.773,30.868 -96.389,52.123 -147.285,45.093c-11.642,-1.607 -23.637,-3.735 -34.876,-7.538c10.611,17.377 18.093,36.642 21.549,56.606c7.694,44.436 -1.764,88.834 -27.973,125.693c4.112,-1.621 8.407,-2.869 12.791,-3.803c1.444,-0.308 2.914,-0.48 4.391,-0.514c10.252,-0.232 19.411,1.161 28.708,5.827c15.274,7.666 25.629,19.599 30.198,36.139l0.001,0.004c4.209,15.245 1.621,32.619 -6.488,46.107l-0.002,0.003c-7.928,13.184 -18.984,20.136 -32.532,24.5c9.744,4.73 18.905,10.956 27.254,18.981c0.818,0.786 1.619,1.587 2.403,2.402c7.972,-9.312 16.194,-18.325 25.695,-26.202l0.001,-0.001c23.602,-19.566 52.432,-30.699 82.596,-34.469c0.47,-0.058 0.941,-0.103 1.414,-0.133l6.641,-0.427c0.097,-0.007 0.194,-0.012 0.29,-0.017c63.326,-3.291 121.315,24.816 168.858,64.865c0.255,0.215 0.505,0.435 0.751,0.661l40.471,37.133c5.56,5.102 8.348,12.554 7.503,20.052c-0.846,7.499 -5.223,14.143 -11.78,17.879l-55.315,31.514c-0.48,0.274 -0.971,0.531 -1.47,0.771c-60.273,28.935 -124.913,38.134 -188.781,15.779c-0.361,-0.126 -0.718,-0.261 -1.072,-0.404c-15.176,-6.154 -29.372,-12.868 -42.118,-21.679c0.112,14.926 -1.84,29.859 -5.725,44.261l0.007,0.001c8.472,1.064 16.818,4.097 24.728,7.167c29.723,11.537 57.687,33.872 77.158,58.984c11.927,15.381 22.517,30.911 30.703,48.628c19.887,43.045 24.594,93.681 18.667,140.352c-0.819,6.449 -4.259,12.275 -9.511,16.106c-5.251,3.832 -11.849,5.33 -18.24,4.142c-53.234,-9.897 -108.06,-31.988 -148.636,-68.354c-17.2,-14.717 -32.18,-34.165 -43.011,-53.96c-8.793,-16.067 -14.838,-32.721 -18.007,-50.408c-18.323,8.278 -38.265,12.898 -58.598,13.05c-0.053,0.001 -0.106,0.001 -0.158,0.001c-29.441,0.023 -57.549,-8.363 -80.81,-26.825c-30.095,-23.885 -47.884,-58.262 -55.168,-95.126c-1.404,12.187 -5.85,24.011 -12.79,34.234c-12.892,18.994 -30.832,28.74 -53.011,32.765c-1.025,0.186 -2.061,0.304 -3.101,0.353c-18.221,0.861 -34.606,-2.649 -49.965,-12.925l-0.002,-0.001c-17.918,-11.989 -28.686,-29.754 -32.339,-50.845c-3.353,-19.362 0.91,-38.67 12.195,-54.716l0.002,-0.002c6.416,-9.12 13.825,-15.857 22.225,-20.854c-36.921,9.333 -72.321,25.554 -101.724,49.071c27.07,16.832 50.58,39.434 70.031,64.462c13.156,16.928 24.513,34.506 31.245,55.014c2.067,6.297 1.393,13.173 -1.857,18.95l-1.029,1.829c-4.07,7.233 -11.637,11.8 -19.933,12.03c0.56,-0.016 1.7,-0.126 1.7,-0.126c-0,-0 -8.449,0.331 -12.4,-0.963c-0.651,-0.213 -4.887,-1.382 -9.889,-6.189c-4.241,-4.075 -23.301,-23.934 -26.662,-26.69c-21.567,-17.68 -52.599,-38.77 -81.73,-35.601l-0.002,-0c-9.288,1.01 -18.738,4.253 -24.592,11.797l-0.002,0.003c-13.119,16.903 -17.445,36.187 -21.212,56.814c-8.485,46.471 -6.439,91.826 -2.47,138.62c5.816,68.563 17.184,136.076 28.001,203.965c0.004,0.026 0.008,0.052 0.012,0.078l0.743,4.76c48.079,2.918 172.679,10.091 234.998,27.564c0.125,0.035 0.251,0.071 0.376,0.108c83.486,24.907 164.371,66.129 231.397,122.214c38.356,32.093 72.094,68.3 105.404,105.47c7.387,8.244 8.06,20.511 1.617,29.513c-6.442,9.001 -18.27,12.322 -28.456,7.989l-41.783,-17.775l-0.027,-0.011c-77.401,-33.04 -159.504,-60.475 -243.444,-69.878c-105.481,-11.819 -213.807,0.287 -304.686,58.653c-24.487,15.727 -45.29,34.517 -67.915,52.558c-9.474,7.555 -23.129,6.715 -31.607,-1.944c-36.051,-36.825 -80.507,-65.879 -128.536,-84.516c-119.052,-46.194 -259.537,-31.85 -379.139,5.282c-51.376,15.949 -100.478,37.188 -149.663,58.773c-9.222,4.047 -19.996,1.802 -26.834,-5.592c-6.839,-7.393 -8.237,-18.31 -3.484,-27.188c4.497,-8.4 13.435,-17.329 20.06,-24.351c0.095,-0.101 0.191,-0.2 0.287,-0.299l37.752,-38.633c0.052,-0.053 0.103,-0.105 0.155,-0.157c94.172,-94.589 225.165,-168.341 357.656,-188.668c47.439,-7.279 95.638,-7.323 143.546,-7.364c1.532,-10.916 3.024,-21.81 4.603,-32.618c11.983,-82.003 21.057,-164.221 24.804,-247.031c-0,-0 2.331,-58.917 2.331,-58.925c-0.075,-9.658 -1.428,-19.178 -2.745,-28.729c-1.339,-9.7 -2.388,-19.574 -5.285,-28.968c-6.306,-20.441 -19.836,-37.4 -34.454,-52.824c-1.357,0.666 -2.668,1.332 -3.887,1.891l-0.003,0.001c-27.251,12.47 -48.716,30.608 -62.644,57.367c-5.885,11.309 -10.018,23.453 -14.405,35.396c-3.316,9.026 -11.773,15.142 -21.383,15.464c-9.611,0.321 -18.458,-5.215 -22.37,-14c-4.373,-9.82 -4.668,-24.875 -4.622,-35.697c0.149,-34.925 12.761,-63.846 31.515,-89.719c-36.561,7.28 -70.415,29.161 -91.182,60.116c-4.031,6.011 -7.908,12.36 -11.211,18.795c-0.831,1.621 -1.643,3.286 -2.461,4.963c2.603,2.408 4.685,5.422 6.012,8.887c3.033,7.917 1.558,16.713 -3.576,23.16c3.923,-1.019 8.122,-1.035 12.203,0.087c9.311,2.56 16.126,10.53 17.21,20.125l1.225,10.844c0.044,0.39 0.078,0.781 0.103,1.172c0.984,15.687 1.332,31.531 -0.367,47.188c-6.047,55.718 -32.027,106.124 -68.686,147.67c-0.189,0.215 -0.382,0.425 -0.579,0.633c-43.576,45.913 -98.517,70.958 -158.839,86.321c-7.526,1.917 -15.513,0.012 -21.363,-5.095c-2.475,-2.159 -6.263,-6.6 -8.386,-13.767c-1.9,-6.411 -3.348,-19.685 -3.755,-23.361c-6.638,-59.956 -3.408,-121.504 19.311,-178.02c7.913,-19.686 17.813,-38.621 31.167,-55.198c30.284,-37.597 72.673,-60.858 118.695,-71.363c1.83,-22.001 9.336,-44.122 18.985,-63.573c14.391,-29.009 36.955,-56.298 63.478,-76.485c-18.108,-2.191 -36.282,-2.923 -54.797,-1.506c-15.334,1.173 -30.283,3.677 -45.594,4.687c2.645,7.848 4.618,15.967 5.842,24.305c5.651,38.504 -4.97,75.878 -28.479,106.784c-23.113,30.382 -58.824,49.919 -96.167,55.29c-0.603,0.087 -1.209,0.15 -1.816,0.19c-13.338,0.875 -26.705,1.421 -39.996,-0.52l-0.001,-0c-8.112,-1.185 -16.252,-3.31 -24.25,-6.136c-0.434,1.726 -1.071,3.428 -1.918,5.073c-15.766,30.598 -35.459,60.914 -58.75,86.258c-0.173,0.189 -0.35,0.375 -0.529,0.558c-44.785,45.655 -103.827,68.785 -167.095,72.669c-6.271,0.385 -12.437,-1.744 -17.134,-5.916c-4.698,-4.172 -7.54,-10.044 -7.897,-16.317c-2.612,-45.794 2.793,-96.809 21.875,-138.87c19.182,-42.286 49.661,-69.274 87.979,-93.944c9.789,-6.303 20.015,-13.518 30.917,-17.645c2.698,-1.022 5.56,-1.54 8.445,-1.53l2.454,0.008l0.074,-0c-0.535,-2.433 -0.986,-4.85 -1.346,-7.241c-1.144,-7.586 -1.74,-15.116 -1.782,-22.556c-3.346,1.914 -6.797,3.732 -10.351,5.463c-0.302,0.147 -0.607,0.288 -0.916,0.422c-17.751,7.725 -35.835,12.3 -54.981,14.887c-78.35,10.592 -155.884,-15.539 -218.1,-63.109c-5.262,-4.023 -8.593,-10.07 -9.181,-16.667c-0.588,-6.597 1.62,-13.138 6.087,-18.029c19.915,-21.804 44.777,-41.146 69.313,-57.435l0.001,-0.001c20.964,-13.914 43.814,-27.066 67.846,-34.941c18.699,-6.127 37.137,-8.743 56.7,-10.184Zm1260.09,-335.387c-14.874,0.814 -28.048,-2.23 -42.025,-10.424c-13.101,-7.679 -23.416,-20.203 -29.172,-34.272c-2.459,12.313 -5.771,24.375 -9.055,34.708c-20.503,64.509 -63.86,110.937 -112.997,152.454c18.392,-1.979 35.044,0.38 51.246,9.943c11.745,6.932 21.061,16.341 27.467,27.704c-0.006,-0.046 -0.012,-0.093 -0.019,-0.139c-5.855,-43.502 7.191,-90.972 33.972,-125.595c21.53,-27.838 48.248,-45.838 80.583,-54.379Zm-817.248,662.649c-13.499,12.935 -25.408,26.899 -35.219,42.093c4.569,-4.613 8.993,-9.354 13.253,-14.212c7.761,-8.852 14.888,-18.388 21.966,-27.881Zm735.948,-214.752c7.358,1.977 14.438,5.14 21.412,9.563c14.954,9.484 25.603,23.055 31.176,39.38c-0.317,-16.469 2.035,-31.681 7.24,-46.148c-18.915,-2.677 -38.194,-3.777 -57.103,-2.929c-0.908,0.04 -1.816,0.085 -2.725,0.134Zm172.588,49.109c-0.249,0.327 -0.474,0.668 -0.614,0.981c-0.232,0.522 -0.603,1.144 -0.761,1.743c0.141,0.071 0.275,0.133 0.386,0.177l0.002,0.001c0.201,0.078 0.475,0.159 0.755,0.233l0.328,-0.1c0.015,-0.04 0.029,-0.078 0.04,-0.115c0.283,-0.899 0.238,-2.025 -0.136,-2.92Zm62.182,2.97l1.831,-0.093c0.097,-0.195 0.148,-0.396 0.107,-0.601c-0.001,-0.004 -0.002,-0.008 -0.003,-0.012c-0.162,-0.739 -0.406,-1.558 -0.776,-2.275c-0.56,0.78 -1.359,1.751 -1.136,2.658c0.024,0.098 -0.078,0.254 -0.023,0.323Zm1.73,49.88c-0.964,-0.013 -1.931,-0.028 -2.898,-0.04l-0.001,0.082c0.961,-0.002 1.929,-0.017 2.899,-0.042Zm-168.409,-324.913c18.72,0.195 54.605,0.559 61.393,0.568l0.004,0c-0,0 40.09,0.06 40.146,0.061c0.823,-0.001 1.945,0.016 3.166,0.041c0.167,-7.71 -0.662,-16.021 -0.674,-23.192l-0,-0.003c-0.022,-13.845 0.828,-28.521 0.218,-42.541c-3.048,-0.193 -5.933,-0.959 -8.55,-2.19c-3.238,1.611 -6.834,2.472 -10.519,2.472l-25.027,0.002l-40,0.229c-4.243,0.024 -8.244,-1.075 -11.709,-3.026c-2.411,1.24 -5.068,2.079 -7.888,2.428c-0.037,1.653 -0.069,3.314 -0.077,4.45l-0.089,34.469c0.001,8.392 -0.593,17.464 -0.394,26.232Zm-942.658,253.895c0.649,0.11 1.042,0.129 1.042,0.129c-0,0 -0.494,-0.061 -0.788,-0.098c-0.085,-0.011 -0.17,-0.021 -0.254,-0.031Zm-104.48,-0.311l0.127,34.519l91.7,-0.705l-0.096,-26.039l-0,-0.069c-0.002,-2.435 0.176,-5.118 0.311,-7.836c-4.48,0.095 -8.964,0.336 -13.342,0.317l-53.728,-0.169c-0,0 -15.478,-0.011 -24.972,-0.018Zm46.391,-245.69c2.914,-0.201 5.824,-0.157 8.955,-0.023c4.112,0.177 8.042,1.419 11.445,3.531c3.873,-2.474 8.416,-3.784 13.081,-3.712c3.642,0.056 8.2,-0.146 12.145,0.473c-0.059,-1.343 -0.109,-2.649 -0.13,-3.898c-0.04,-2.35 -0.119,-4.713 -0.261,-7.071c-1.073,0.085 -2.158,0.098 -3.247,0.035l-11.26,-0.654c-0.484,-0.029 -0.966,-0.072 -1.447,-0.129c-9.56,-1.148 -19.507,-0.292 -29.204,-0.286c-0.158,3.932 -0.145,7.87 -0.077,11.734Zm365.62,-305.529l2.88,-0.145c0.88,-0.76 1.937,-1.762 2.47,-2.598c1.352,-2.124 1.733,-5.274 0.827,-7.608l-0.004,-0.009c-0.419,-1.075 -1.067,-2.312 -2.036,-3.023l-4.473,0.384c-0.724,0.386 -2.163,1.24 -2.803,2.243c-1.316,2.064 -0.718,4.457 0.183,6.798c0.525,1.36 1.621,2.997 2.956,3.958Zm-257.056,497.452c1.881,-2.663 4.326,-4.958 7.244,-6.689c18.344,-10.882 38.391,-19.113 59.078,-24.927c-16.327,-22.52 -27.519,-48.061 -30.126,-76.339c-1.527,2.508 -3.139,4.958 -4.836,7.343c-21.564,30.296 -50.774,50.307 -85.951,59.023c9.083,4.028 17.751,8.98 25.772,14.856c10.637,7.792 20.345,16.772 28.819,26.733Zm1049.44,-73.107c-8.578,-7.679 -14.642,-17.602 -17.153,-29.199l-0.001,-0.005c-2.431,-11.232 -1.928,-22.753 1.805,-33.383c-21.149,15.635 -46.194,25.54 -72.791,29.906c-0.623,0.103 -1.25,0.18 -1.88,0.232c-38.501,3.184 -72.356,-5.538 -103.455,-28.937l-0.002,-0.001c-5.448,-4.1 -10.616,-8.496 -15.483,-13.161c2.326,31.768 -5.196,64.608 -21.835,91.929c34.873,4.779 68.673,13.44 100.717,27.897c29.301,-28.612 66.229,-40.68 107.847,-44.862c0.037,-0.004 0.074,-0.007 0.111,-0.011l3.657,-0.35c0.452,-0.043 0.905,-0.073 1.36,-0.091c5.73,-0.216 11.441,-0.218 17.103,0.036Zm-248.777,-133.798c-0.022,9.364 -1.818,18.624 -5.459,27.356c3.557,-4.259 8.596,-7.252 14.379,-8.183c0.023,-0.004 0.045,-0.007 0.068,-0.011c-3.4,-6.178 -6.404,-12.576 -8.988,-19.162Zm145.494,-346.191c-0.135,-0.72 -0.237,-1.441 -0.305,-2.163c-0.888,0.058 -1.781,0.066 -2.674,0.024c1.014,0.692 2.007,1.405 2.979,2.139Zm-107.34,17.176c-4.511,2.255 -9.384,3.871 -14.596,5.039c3.62,1.662 6.735,4.205 9.082,7.351c1.474,-4.39 3.316,-8.568 5.514,-12.39Zm-35.843,5.54c-0.007,0.096 -0.015,0.192 -0.022,0.288c0.142,-0.079 0.284,-0.155 0.427,-0.23c-0.135,-0.019 -0.271,-0.039 -0.405,-0.058Zm-362.843,-119.866c-8.976,9.112 -19.503,12.643 -33.174,14.656c-1.465,0.216 -2.947,0.293 -4.427,0.231c-9.29,-0.387 -18.791,-2.31 -27.041,-6.824c13.423,18.344 22.457,39.429 26.805,62.304l0.297,-0.108c0.726,-0.264 1.465,-0.491 2.213,-0.683c2.27,-0.58 11.83,-1.69 16.667,-1.168c6.902,0.745 11.536,3.734 13.996,5.815l0.014,0.012c1.735,1.471 4.006,3.799 5.917,7.414c1.473,2.788 3.965,12.096 4.582,14.387l0.001,0.004c6.524,24.231 15.058,47.805 26.414,70.189c3.778,7.444 7.783,15.122 12.645,22.092c3.109,-31.484 3.833,-63.006 3.599,-94.902c-0.046,-6.305 2.431,-12.367 6.878,-16.836c4.448,-4.469 10.498,-6.975 16.803,-6.959l20.694,0.052c4.342,0.011 8.413,1.195 11.91,3.253c0.466,-1.789 0.968,-3.569 1.506,-5.338c-4.065,-0.093 -8.096,-0.202 -12.013,-0.212c-0.042,-0.001 -0.083,-0.001 -0.124,-0.001l-70.537,-0.556c-12.933,-0.102 -23.379,-10.585 -23.436,-23.518l-0.189,-43.304Zm-149.945,240.529c10.11,19.338 10.4,46.704 7.363,66.722c-1.777,11.734 -6.457,25.069 -14.097,35.28l27.206,14.401c3.544,-55.814 18.143,-114.156 58.256,-154.1c7.359,-7.327 18.641,-8.989 27.8,-4.095c9.16,4.894 14.049,15.197 12.047,25.388c-11.28,57.418 -15.498,115.203 -5.968,173.199l0.001,0.003c0.974,5.934 1.476,14.929 3.739,21.196c0.962,0.772 1.989,1.607 2.443,2.012c0.113,0.101 0.225,0.203 0.337,0.306l17.504,16.216c0.258,0.239 0.51,0.484 0.757,0.734c3.859,3.909 7.601,7.904 11.216,11.992c10.987,-42.81 21.343,-85.505 28.896,-129.421c0.457,-2.654 1.703,-8.258 2.552,-11.997c-4.621,-6.401 -14.827,-20.572 -17.182,-24.115c-10.057,-15.13 -20.26,-30.751 -28.836,-46.759c-13.864,-25.881 -22.916,-55.058 -29.104,-84.649c-5.969,15.837 -14.474,30.711 -25.122,43.763c-20.67,25.34 -48.819,38.635 -79.808,43.924Zm-95.263,171.154c0.013,0.079 0.025,0.158 0.038,0.238l-0,0.002c2.547,16.267 -1.704,30.458 -11.041,43.672c-15.081,21.348 -36.585,32.534 -61.792,36.708c-0.549,0.091 -1.101,0.162 -1.656,0.214c-12.161,1.14 -24.786,-1.243 -36.169,-6.171c2.592,6.007 4.564,12.645 6.834,18.433c4.13,10.527 10.533,20.786 17.387,29.737c21.847,28.533 52.705,50.875 84.343,67.378c10.996,5.736 22.521,11.678 34.379,15.39c12.3,3.851 25.081,6.291 37.574,9.569c-4.726,-7.351 -8.067,-15.583 -9.589,-23.907c-2.768,-15.121 -0.326,-30.685 6.652,-44.176c-5.617,3.572 -11.964,6.149 -18.826,8.245c-1.027,0.314 -2.074,0.557 -3.134,0.728c-14.107,2.278 -27.491,0.981 -40.064,-6.446c-14.299,-8.446 -23.174,-21.66 -26.733,-37.562l-0.001,-0.005c-3.339,-14.934 -0.044,-31.568 8.356,-44.293c8.865,-13.437 20.515,-19.985 35.797,-23.419c1.241,-0.279 2.502,-0.457 3.772,-0.533c11.5,-0.686 21.812,0.375 32.458,5.359c13.937,6.523 24.365,18.597 28.969,33.229c4.456,14.161 3.978,28.756 -1.762,42.166c8.309,-6.159 17.933,-9.837 28.927,-11.747c0.706,-0.123 1.418,-0.214 2.132,-0.272c8.962,-0.727 18.711,-0.292 27.787,1.982c-31.707,-40.369 -77.397,-72.005 -118.893,-98.601c-0,0 -15.876,-9.816 -25.745,-15.918Zm184.742,212.235c-9.368,15.24 -25.178,25.541 -41.939,30.446c-1.095,0.32 -2.212,0.56 -3.341,0.719c-0.793,0.112 -1.587,0.216 -2.38,0.311c17.546,10.502 33.77,22.771 49.145,36.125l0.328,-22.054c-0.005,-15.038 -0.247,-30.403 -1.813,-45.547Zm-321.254,-155.538c-0.647,-0.672 -1.283,-1.357 -1.907,-2.054c0.005,0.773 0.005,1.547 -0.002,2.321c0.636,-0.116 1.273,-0.204 1.909,-0.267Zm698.607,-257.281c-18.829,16.258 -41.484,26.755 -67.269,31.07c-0.318,0.053 -0.638,0.1 -0.959,0.14l-1.128,0.141c-0.051,0.007 -0.102,0.013 -0.153,0.019c-6.704,0.796 -13.38,1.163 -19.989,1.076c1.313,3.475 1.803,7.248 1.374,11.02c-1.352,11.896 -0.935,23.097 0.792,34.144c1.771,-1.262 3.542,-2.523 5.318,-3.773c29.254,-20.586 60.483,-44.379 82.014,-73.837Zm-148.899,17.301c-5.801,-3.197 -11.403,-6.925 -16.765,-11.207c-13.301,-10.619 -24.287,-23.567 -32.611,-38.039l4.669,185.676l26.818,-17.283c-4.034,-13.56 -7.244,-27.372 -8.295,-41.5l-0,-0.004c-1.512,-20.365 1.41,-39.942 6.106,-59.669c2.307,-9.689 10.395,-16.781 20.078,-17.974Zm67.817,272.999c-13.277,-10.761 -22.338,-26.015 -26.303,-42.721l-0,-0.003c-3.341,-14.087 -1.366,-30.29 4.147,-44.194c-22.203,17.25 -44.199,33.881 -62.37,55.582c-1.954,2.334 -3.86,4.699 -5.716,7.093c2.269,-0.596 4.611,-1.118 7.028,-1.574c0.86,-0.162 1.729,-0.276 2.602,-0.341c16.84,-1.266 31.953,1.507 46.716,10.141c13.977,8.174 24.274,21.565 29.425,36.724c1.622,-6.945 3.095,-13.87 4.471,-20.707Zm-38.841,107.694c-6.331,3.256 -13.286,5.588 -20.898,7.11c-1.158,0.232 -2.331,0.376 -3.51,0.432c-15.583,0.741 -29.437,-0.787 -43.135,-9.036l-0.002,-0.001c-12.427,-7.485 -23.57,-19.754 -30.106,-33.516c-8.306,33.706 -9.821,68.862 -9.869,103.44c-0,0 1.425,32.427 1.425,32.426c15.116,-18.645 32.429,-35.568 52.432,-51.219c14.366,-11.239 29.507,-20.301 41.732,-34.143c4.329,-4.901 8.292,-10.083 11.931,-15.493Zm153.317,-128.957c-0.251,0.416 -0.508,0.83 -0.769,1.243l-0.001,0.001c-11.569,18.273 -28.117,29.511 -49.045,34.581c-0.274,0.066 -0.548,0.127 -0.824,0.184c-3.514,0.719 -7.057,1.208 -10.603,1.463c4.467,20.785 5.467,41.237 4.115,61.711c5.816,-3.666 11.44,-7.62 16.72,-12.099c15.739,-13.351 32.041,-34.596 36.79,-55.009c2.168,-9.322 2.203,-18.865 3.005,-28.363c0.107,-1.268 0.314,-2.508 0.612,-3.712Zm-582.072,436.347c1.065,-1.044 2.238,-1.996 3.511,-2.837c7.406,-4.895 16.932,-5.224 24.659,-0.851c19.447,11.005 35.327,28.667 46.419,47.897l0.001,0.002c22.822,39.573 26.1,87.349 14.593,130.8c-0.027,0.102 -0.054,0.203 -0.082,0.303c-10.859,38.902 -32.694,70.676 -61.205,98.741c-8.984,8.843 -23.328,9.074 -32.592,0.524c-30.48,-28.13 -52.745,-67.78 -63.934,-107.589c-10.039,-35.713 -10.884,-76.569 -0.496,-112.326c6.079,-20.927 15.55,-39.711 26.177,-58.613c4.993,-8.883 15.12,-13.562 25.121,-11.608c8.412,1.643 15.139,7.668 17.828,15.557Zm579.86,-48.788c-0.662,-3.608 -0.49,-7.4 0.622,-11.082c2.994,-9.92 12.103,-16.73 22.464,-16.796c25.747,-0.163 51.592,1.098 76.597,7.836c46.367,12.498 88.216,43.081 112.238,84.964c13.123,22.88 21.271,48.163 26.558,73.894c10.932,53.194 9.697,107.975 -4.431,160.441c-1.665,6.182 -5.768,11.423 -11.368,14.524c-5.601,3.101 -12.221,3.795 -18.344,1.925c-51.628,-15.774 -96.018,-38.777 -137.717,-73.385c-0.613,-0.509 -1.2,-1.048 -1.758,-1.616l-26.586,-27.04c-0.423,-0.43 -0.829,-0.876 -1.218,-1.338c-26.127,-30.999 -47.28,-70.468 -55.431,-110.421c-5.451,-26.717 -5.306,-53.403 -2.981,-80.409c0.844,-9.805 7.678,-18.059 17.154,-20.718c1.391,-0.39 2.797,-0.648 4.201,-0.779Zm-818.026,-704.969c17.281,-0.825 33.016,2.226 47.898,11.377c17.224,10.592 29.491,28.705 33.953,48.239c4.147,18.158 0.875,40.69 -9.068,56.463c-12.17,19.309 -27.932,28.32 -49.508,33.629c-0.927,0.228 -1.866,0.4 -2.813,0.514c-17.873,2.158 -36.451,-1.429 -51.804,-11.138c-17.845,-11.283 -29.499,-29.223 -33.582,-49.934c-4.016,-20.366 -0.086,-42.581 12.125,-59.681c12.415,-17.386 29.29,-25.475 49.778,-29.129c0.999,-0.178 2.008,-0.292 3.021,-0.34Z" style="fill:#fff;"/><path d="M816.749,695.22c1.658,-0.588 3.604,-1.111 5.39,-1.031c3.491,0.158 6.971,2.989 8.996,5.625c11.114,14.462 10.1,39.085 7.491,56.281c-1.571,10.369 -5.733,23.131 -14.404,29.579c-1.692,0.752 -3.323,1.094 -5.208,0.825c-3.332,-0.479 -6.242,-3.598 -8.096,-6.177c-11.221,-15.617 -10.915,-39.69 -7.823,-57.781c1.81,-10.598 4.477,-20.765 13.654,-27.321Z" style="fill:#00af95;fill-rule:nonzero;"/><path d="M966.393,378.297c5.469,-0.075 11.452,1.173 16.162,4.056c6.684,4.092 12.486,12.294 14.092,19.983c2.035,9.757 0.548,20.492 -5.152,28.821c-6.067,8.867 -13.56,11.042 -23.548,12.513c-6.092,-0.254 -12.421,-1.271 -17.683,-4.525c-7.15,-4.423 -12.507,-11.738 -14.302,-19.99c-1.982,-9.108 -0.096,-19.331 5.268,-26.952c6.461,-9.181 14.557,-12.054 25.163,-13.906Z" style="fill:#00af95;fill-rule:nonzero;"/><path d="M1373.68,485.634c6.182,-0.043 11.713,0.286 17.282,3.244c8.066,4.283 14.185,12.8 16.379,21.579c2.258,9.048 0.473,18.746 -4.834,26.429c-5.731,8.298 -13.866,11.121 -23.343,12.634c-6.977,-0.209 -13.05,-0.704 -19.209,-4.3c-7.379,-4.309 -12.998,-11.502 -14.977,-19.89c-1.983,-8.412 -0.231,-18.414 4.781,-25.423c6.186,-8.643 13.586,-12.698 23.921,-14.273Z" style="fill:#00af95;fill-rule:nonzero;"/><path d="M786.889,931.449c7.437,-0.444 14.152,-0.05 21.037,3.173c7.927,3.71 13.831,10.602 16.45,18.925c3,9.535 2.471,19.402 -2.116,28.258c-4.6,8.879 -12.667,12.252 -21.671,15.002c-8.527,1.377 -16.684,1.025 -24.284,-3.464c-8.479,-5.009 -13.585,-12.954 -15.695,-22.384c-1.971,-8.814 0.06,-18.616 5.018,-26.127c5.207,-7.891 12.286,-11.366 21.261,-13.383Z" style="fill:#00af95;fill-rule:nonzero;"/><path d="M1648.63,953.234c6.261,-0.141 11.9,0.473 17.577,3.323c9.055,4.544 15.317,11.513 18.025,21.317c2.525,9.146 0.902,19.558 -3.962,27.65c-5.438,9.042 -13.673,12.71 -23.365,15.317c-8.162,0.077 -15.475,-0.752 -22.525,-5.307c-7.327,-4.733 -12.712,-11.62 -14.573,-20.21c-2.093,-9.677 -0.829,-19.748 4.78,-28.079c5.579,-8.286 14.662,-12.011 24.043,-14.011Z" style="fill:#01a08c;fill-rule:nonzero;"/><path d="M614.16,500.093c7.043,-0.359 13.414,0.023 19.872,3.148c8.521,4.125 14.953,11.858 17.803,20.866c2.764,8.742 1.66,17.94 -2.884,25.838c-5.637,9.802 -12.671,14.583 -23.339,17.685c-7.434,0.194 -14.232,-0.408 -20.977,-3.831c-9.053,-4.594 -14.544,-13.452 -17.171,-22.969c-2.298,-8.323 -1.259,-17.337 3.116,-24.823c5.334,-9.123 13.665,-13.51 23.58,-15.914Z" style="fill:#00af95;fill-rule:nonzero;"/><path d="M821.818,494.751c3.019,-0.254 6.337,-0.71 9.269,0.279c5.106,1.727 9.512,6.459 11.652,11.319c1.743,3.96 1.11,8.958 -0.592,12.829c-2.985,6.792 -7.692,10.461 -14.342,13.325l-5.666,-0.26c-5.494,-0.907 -10.765,-5.994 -13.542,-10.567c-2.306,-3.798 -3.392,-8.417 -2.004,-12.748c2.377,-7.412 8.75,-10.885 15.225,-14.177Z" style="fill:#fefefe;fill-rule:nonzero;"/><path d="M878.118,1000.15c9.004,-0.731 19.244,-0.194 27.389,3.998c11.375,5.852 20.113,14.808 23.7,27.358c2.805,9.806 0.211,23.09 -4.793,31.69c-6.213,10.675 -17.348,17.504 -28.89,20.881c-11.796,1.66 -23.848,1.433 -34.246,-5.19c-9.487,-6.041 -16.371,-16.825 -18.379,-27.808c-2.246,-12.267 0.74,-24.971 8.079,-35.025c6.89,-9.442 15.988,-13.967 27.14,-15.904Z" style="fill:#00af95;fill-rule:nonzero;"/><path d="M1161.53,951.18c11.89,-0.894 22.598,0.881 33.021,6.977c10.481,6.129 17.633,16.873 20.3,28.584c2.817,12.379 -0.246,28.31 -7.435,38.708c-7.75,11.206 -18.163,17.325 -31.415,19.975c-10.735,0.51 -20.39,0.006 -29.827,-5.677c-11.39,-6.861 -21.41,-19.458 -24.133,-32.656c-2.434,-11.805 0.616,-25.35 7.141,-35.319c8.023,-12.256 18.377,-17.961 32.348,-20.592Z" style="fill:#00af95;fill-rule:nonzero;"/><path d="M1456.21,557.407c10.013,-0.383 18.55,-0.123 27.938,3.959c12.99,5.65 22.869,14.714 27.777,28.231c4.4,12.11 3.554,26.319 -2.065,37.914c-6.904,14.253 -18.558,21.159 -33.045,25.85c-13.688,2.207 -24.967,0.803 -37.071,-6.293c-10.627,-6.229 -18.384,-17.342 -21.34,-29.179c-3.252,-13.023 -1.019,-29.655 6.236,-40.898c7.412,-11.488 18.706,-16.75 31.57,-19.584Z" style="fill:#00af95;fill-rule:nonzero;"/><path d="M680.362,824.251c11.1,-0.767 22.36,3.483 31.498,9.517c11.252,7.429 22.066,20.606 24.195,34.193c1.544,9.859 -1.337,18.38 -6.995,26.388c-11.261,15.94 -27.538,23.917 -46.359,27.033c-12.677,1.188 -26.021,-3.402 -36.083,-10.998c-9.594,-7.239 -17.958,-18.056 -19.363,-30.243c-1.462,-12.675 3.238,-26.009 11.273,-35.786c11.023,-13.416 25.138,-18.385 41.834,-20.104Z" style="fill:#00af95;fill-rule:nonzero;"/><path d="M535.732,638.705c12.39,-0.591 23.73,1.344 34.398,7.904c11.886,7.309 20.219,19.898 23.298,33.377c2.834,12.407 0.771,27.83 -6.023,38.607c-8.577,13.608 -19.962,19.546 -35.168,23.287c-12.53,1.513 -25.586,-0.846 -36.348,-7.652c-12.311,-7.783 -20.215,-20.25 -23.032,-34.537c-2.781,-14.107 -0.285,-29.54 8.173,-41.384c8.58,-12.014 20.544,-17.077 34.702,-19.602Z" style="fill:#00af95;fill-rule:nonzero;"/><path d="M1279.07,843.826c13.166,-1.421 25.146,-0.05 36.744,6.796c12.191,7.196 20.606,18.252 24.037,31.979c3.294,13.175 1.625,26.906 -5.731,38.527c-8.154,12.879 -19.898,20.686 -34.648,24.258c-13.09,2.68 -26.761,0.896 -38.392,-5.914c-12.496,-7.315 -20.721,-19.933 -24.027,-33.865c-2.975,-12.543 0.536,-27.491 7.223,-38.254c7.969,-12.829 20.277,-20.262 34.794,-23.527Z" style="fill:#00af95;fill-rule:nonzero;"/><path d="M1364.01,1147.06c12.193,-0.902 22.904,1.65 33.268,8.223c12.332,7.821 20.4,19.681 23.352,33.981c2.761,13.369 -0.622,27.398 -8.247,38.63c-9.111,13.422 -22.011,19.945 -37.684,22.789c-13,0.615 -24.756,-1.631 -35.714,-8.962c-12.386,-8.288 -19.675,-20.665 -22.2,-35.244c-2.273,-13.125 0.591,-26.219 8.241,-37.096c9.713,-13.806 22.921,-19.444 38.984,-22.321Z" style="fill:#00af95;fill-rule:nonzero;"/><path d="M1027.98,404.659l105.409,-0.129l-0.869,91.421c-10.819,1.188 -22.688,0.219 -33.604,0.19l-70.538,-0.557l-0.398,-90.925Z" style="fill:#00af95;fill-rule:nonzero;"/><path d="M1716.34,1236.4l6.319,0.2c6.57,0.825 12.987,3.369 19.122,5.75c25.861,10.038 50.098,29.59 67.038,51.438c10.819,13.952 20.502,27.989 27.927,44.06c18.056,39.083 22.058,85.094 16.677,127.469c-49.173,-9.142 -99.96,-29.263 -137.392,-62.904c-15.164,-12.921 -28.312,-30.094 -37.85,-47.525c-9.46,-17.288 -15.245,-35.357 -17.068,-54.984c-0.482,-5.189 -1.229,-10.025 0.296,-15.104l1.875,-0.527c10.395,3.542 20.064,11.883 28.906,18.292l46.431,34.521c11.527,9.014 22.804,19.222 35.233,26.929c-6.01,-12.167 -14.043,-23.063 -21.783,-34.161l-28.121,-40.712c-5.954,-8.688 -12.683,-17.8 -17.196,-27.315c-2.327,-4.906 -2.914,-9.666 -0.935,-14.86c2.146,-5.627 5.227,-7.998 10.521,-10.567Z" style="fill:#00af95;fill-rule:nonzero;"/><path d="M303.83,1246.26l2.455,0.009c9.481,9.339 16.289,22.716 24.406,33.377l-72.536,99.648c13.88,-6.913 27.325,-18.173 40.273,-26.867c20.525,-13.783 42.396,-26.525 61.784,-41.825l24.889,15.954c-14.814,28.752 -33.258,57.279 -55.144,81.094c-40.62,41.41 -94.293,62.11 -151.679,65.633c-2.402,-42.116 2.254,-89.083 19.804,-127.766c17.194,-37.904 44.907,-61.727 79.255,-83.842c8.429,-5.427 17.106,-11.86 26.493,-15.415Z" style="fill:#00af95;fill-rule:nonzero;"/><path d="M208.605,794.118c17.282,-0.85 34.89,0.804 51.55,5.477c33.79,9.481 64.327,31.004 81.7,61.769l-148.641,3.687c5.81,4.373 16.285,6.342 23.225,8.294c38.089,10.721 77.302,17.419 116.025,25.456c-7.346,12.746 -19.319,21.26 -31.538,28.908c-20.154,11.348 -44.225,16.059 -67.175,16.813c-68.502,2.254 -139.806,-37.504 -188.231,-83.123c45.889,-36.654 103.843,-64.888 163.085,-67.281Z" style="fill:#00af95;fill-rule:nonzero;"/><path d="M1808.86,1026.35l6.642,-0.427c57.258,-2.975 109.425,23.129 152.413,59.342l40.47,37.133l-55.314,31.514c-54.531,26.18 -112.971,35.005 -170.754,14.78c-24.134,-9.786 -45.744,-20.684 -61.457,-42.313l115.313,-18.025c7.917,-1.323 20.031,-1.546 27.04,-5.087c-50.155,-16.748 -100.594,-20.955 -153.094,-17.869c8.86,-10.536 17.65,-21.011 28.291,-29.833c20.113,-16.673 44.746,-26.003 70.45,-29.215Z" style="fill:#00af95;fill-rule:nonzero;"/><path d="M1804.59,781.582c10.729,-1.248 22.458,-0.433 33.175,0.515c55.593,4.919 104.133,35.304 148.341,67.206c-3.714,5.913 -10.968,11.171 -16.298,15.723c-26.006,22.213 -53.67,41.419 -85.808,53.675c-48.375,18.446 -99.454,20.954 -147.189,-0.529c-16.744,-8.146 -30.359,-18.479 -44.784,-30.096c4.834,-1.892 10.919,-2.206 16.05,-3.048l32.634,-5.629c35.225,-6.127 69.512,-14.048 102.679,-27.71c-19.994,-3.342 -40.427,-4.344 -60.663,-5.057c-32.371,-1.135 -64.121,-0.387 -96.389,2.432l7.97,-10.83c28.242,-34.123 66.594,-52.548 110.282,-56.652Z" style="fill:#00af95;fill-rule:nonzero;"/><path d="M1708.77,340.966c2.702,-0.836 7.412,-0.43 10.325,-0.538l32.752,0.05l-10.513,52.298c-15.056,53.765 -49.181,108.521 -99.125,135.967c-33.448,18.381 -70.898,27.466 -108.402,16.418l92.846,-89.437l20.325,-25.825c-52.583,16.848 -98.423,56.852 -138.235,93.9c0.614,-38.917 11.506,-74.135 36.9,-104.235c41.066,-48.675 100.796,-73.171 163.127,-78.598Z" style="fill:#00af95;fill-rule:nonzero;"/><path d="M1517.58,167.095l1.425,0.452c5.417,14.225 8.323,29.062 10.632,44.073c9.352,60.812 6.143,121.433 -31.905,172.544c-23.739,31.889 -57.835,54.068 -97.27,59.835c16.527,-42.856 39.135,-83.29 53.839,-127.017c2.673,-7.954 6.525,-17.062 7.015,-25.408l-1.156,-0.913l-2.605,1.511c-10.373,8.477 -19.173,20.192 -26.962,31.039c-23.717,33.021 -39.175,69.088 -58.825,104.271c-17.581,-44.85 -14.338,-89.896 2.95,-134.443c24.196,-62.346 84.333,-99.996 142.862,-125.944Z" style="fill:#00af95;fill-rule:nonzero;"/><path d="M1020.49,33.599l32.193,44.658c32.794,49.182 56.902,108.917 44.507,168.759c-7.388,35.677 -30.157,62.652 -60,82.187c0.179,-38.364 -0.882,-76.044 -5.725,-114.148c-2.109,-16.598 -4.398,-33.498 -8.773,-49.666c-18.604,52.85 -21.594,108.247 -22.969,163.716l-12.281,-9.844c-28.267,-25.06 -44.952,-60.42 -46.827,-98.2c-3.319,-66.881 36.181,-139.007 79.875,-187.462Z" style="fill:#00af95;fill-rule:nonzero;"/><path d="M1306.07,113.97l1.46,0.582c3.244,12.439 4.415,25.716 5.869,38.48c6.104,53.613 6.342,110.629 -19.483,159.611c-21.323,40.446 -55.438,64.818 -98.327,77.962l32.96,-97.521c7.727,-21.781 16.223,-43.5 21.017,-66.154c-6.946,5.192 -11.892,10.559 -17.138,17.379c-30.416,38.219 -55.885,86.842 -70.456,133.413c-7.569,-13.417 -13.527,-26.579 -17.417,-41.513c-10.187,-39.1 -0.648,-81.268 19.775,-115.435c25.209,-42.173 66.43,-73.281 110.242,-94.089c10.056,-4.776 20.685,-9.986 31.498,-12.715Z" style="fill:#00af95;fill-rule:nonzero;"/><path d="M1751.54,570.141c30.939,-2.959 62.071,2.308 91.954,9.943c17.029,4.352 34.112,9.267 50.117,16.63c-8.471,9.516 -14.936,20.583 -22.69,30.656c-19.108,24.819 -41.117,48.808 -65.906,68.05c-35.042,27.196 -84.729,46.548 -129.571,40.354c-11.727,-1.619 -23.906,-3.702 -34.938,-8.138c-7.762,-3.12 -15.16,-7.631 -22.445,-11.729l-0.088,-1.61l5.14,-2.927c41.8,-20.148 86.285,-37.775 122.164,-67.954c-48.808,4.775 -94.175,19.708 -139.077,38.889c3.413,-19.4 12.261,-38.623 24.896,-53.691c31.087,-37.078 73.165,-54.459 120.444,-58.473Z" style="fill:#00af95;fill-rule:nonzero;"/><path d="M518.307,171.084c17.071,4.675 33.19,13.382 48.48,22.144c34.004,19.492 62.533,39.838 86.635,71.123c24.154,31.356 40.588,75.935 35.252,115.844c-2.227,16.644 -7.283,30.173 -14.644,45.246c-16.891,-30.919 -34.518,-59.236 -54.8,-87.965c-9.381,-13.29 -18.568,-26.544 -29.27,-38.835c-3.944,-3.761 -5.413,-6.694 -11.05,-6.944l-1.371,1.439c3.262,13.3 10.035,27.005 15.208,39.805l46.367,110.179l-16.419,-3.821c-38.39,-10.442 -71.056,-38.104 -90.594,-72.433c-33.631,-59.105 -31.608,-131.988 -13.794,-195.782Z" style="fill:#00af95;fill-rule:nonzero;"/><path d="M733.851,95.513l2.267,1.029c16.931,7.859 33.442,18.094 49.006,28.372c44.342,29.279 90.119,69.202 108.592,120.589c13.123,36.506 8.366,76.083 -8.127,110.475c-7.782,-12.777 -13.588,-26.819 -21.048,-39.833c-18.536,-32.327 -40.392,-62.481 -64.713,-90.671c-1.735,-1.265 -1.021,-1.058 -2.964,-1.392c-1.919,-0.327 -2.359,0.554 -3.892,1.588c-0.162,0.962 -0.531,1.91 -0.487,2.883c0.235,5.083 6.204,15.348 8.17,20.313l24.227,59.579l29.167,71.094l-15.029,-2.921c-39.86,-10.088 -70.71,-39.319 -91.21,-73.95c-36.107,-60.996 -31.132,-141.167 -13.959,-207.155Z" style="fill:#00af95;fill-rule:nonzero;"/><path d="M211.574,1036.81c12.356,-0.993 25.894,0.894 37.915,3.752c32.643,7.763 59.858,27.884 77.341,56.411c-31.775,1.514 -63.341,4.277 -94.795,9.081c-16.398,2.504 -33.25,4.775 -48.85,10.6c9.643,3.575 20.962,4.844 31.141,6.525c38.694,6.392 78.098,8.523 117.209,10.719c-11.832,19.823 -28.365,33.173 -48.917,43.181c-15.725,6.844 -31.758,10.846 -48.719,13.138c-72.1,9.747 -143.335,-14.69 -200.588,-58.465c18.64,-20.408 41.97,-38.44 64.936,-53.685c19.222,-12.759 40.103,-24.955 62.138,-32.175c16.875,-5.53 33.531,-7.786 51.189,-9.082Z" style="fill:#00af95;fill-rule:nonzero;"/><path d="M289.957,349.959c65.109,-0.523 133.446,16.284 185.132,57.309c25.612,20.329 48.043,49.902 58.252,81.202c4.598,14.1 6.727,28.769 8.383,43.466c-49.171,-28.777 -92.462,-71.189 -147.142,-89.943l-0.568,1.306c6.762,7.885 12.698,16.619 19.791,24.196c30.069,32.121 64.575,60.116 96.825,89.987c-5.275,3.975 -21.256,5.479 -27.956,6.046c-40.683,3.446 -75.783,-10.985 -106.525,-37.044c-49.937,-42.333 -81.05,-111.739 -86.192,-176.525Z" style="fill:#00af95;fill-rule:nonzero;"/><path d="M246.764,580.547c34.05,-3.221 70.683,2.006 102.321,15.033c41.918,17.263 74.091,47.7 91.602,89.461c-52.471,-11.773 -106.675,-25.821 -160.675,-26.507c16.604,11.086 37.723,18.917 56.156,26.409l56.612,23.266l39.121,15.465l-16.252,12.633c-27.996,18.125 -61.6,23.821 -94.129,16.823c-79.19,-17.033 -135.315,-85.044 -177.293,-149.669c32.668,-13.12 67.603,-19.931 102.537,-22.914Z" style="fill:#00af95;fill-rule:nonzero;"/><path d="M814.747,424.23l0.596,-0.129c29.014,-2.877 59.333,7.535 81.846,25.625c27.741,22.288 44.166,53.402 48.018,88.773c3.711,34.052 -7.572,69.187 -29.085,95.558c-19.16,23.49 -46.392,33.867 -75.719,36.979c-11.191,2.121 -22.383,2.527 -33.575,1.28c-21.916,-1.055 -42.718,-8.509 -60.187,-21.78c-23.486,-17.839 -41.452,-46.772 -45.277,-76.16c-4.748,-36.492 5.441,-71.71 27.862,-100.74c20.567,-26.631 52.261,-44.985 85.521,-49.406Zm0.5,78.791c-16.81,0.843 -33.128,3.185 -47.916,11.17c-13.267,7.168 -24.776,18.245 -36.141,27.754l19.084,14.129c21.351,-18.696 41.475,-30.251 71.751,-29.443l10.694,0.493c26.783,3.852 42.509,12.085 61.754,29.149c6.661,-4.849 12.811,-8.834 20.463,-12.253c-23.476,-24.164 -46.643,-38.852 -82.537,-40.581l-17.152,-0.418Zm1.879,38.952c-19.91,2.565 -34.597,5.982 -47.3,21.553l-3.724,5.307l16.098,14.098c9.243,-7.258 16.965,-12.021 28.878,-15.12l1.639,-0.448c5.752,-1.443 12.478,-0.741 18.393,-0.544c12.407,3.665 20.998,8.426 31.233,15.838l18.96,-13.074c-12.657,-15.997 -26.755,-23.944 -48.125,-26.923c-5.133,-0.715 -10.887,-1.319 -16.052,-0.687Zm4.956,39.959c-5.532,1.369 -12.016,2.86 -15.176,7.819c-2.421,3.805 -2.885,9.472 -1.257,13.648c1.852,4.753 6.721,8.756 11.8,10.41c2.741,0.892 5.675,1.237 8.558,1.41c5.746,-1.354 9.155,-3.24 12.255,-8.096c2.826,-4.431 4.237,-9.391 2.307,-14.401c-1.36,-3.527 -5.293,-7.228 -8.982,-8.779c-2.888,-1.213 -6.389,-1.566 -9.505,-2.011Z" style="fill:#00af95;"/><path d="M465.055,798.255c28.048,-1.491 54.402,5.6 77.586,21.546c27.098,18.64 47.333,46.667 52.962,79.49c5.175,30.16 -1.214,63.956 -19.06,89.029c-20.286,28.5 -48.581,46.225 -82.94,51.975l-1.246,0.156c-31.272,3.715 -61.989,-2.535 -86.872,-22.404c-26.003,-20.761 -42.253,-51.294 -45.79,-84.336c-3.76,-35.131 6.042,-69.843 28.575,-97.247c19.565,-23.792 46.654,-35.365 76.785,-38.209Zm5.548,34.123c-14.25,6.148 -26.206,18.702 -32.025,33.163c-6.471,16.079 -6.618,35.102 -6.179,52.183c0.231,8.952 0.408,17.877 4.048,26.219c3.86,8.843 10.146,14.739 17.535,20.668c-0.168,-9.662 -1.254,-20.245 -0.152,-29.808c3.425,-0.785 6.482,-0.669 9.975,-0.519c0.461,0.694 1.14,1.286 1.38,2.082c1.318,4.37 0.16,14.252 0.216,19.187l0.85,61.931l20.471,0.096c1.21,-1.612 1.302,-1.427 1.542,-3.61l0.716,-79.848c3.782,0.058 9.127,-0.965 11.8,1.723l0.009,34.623c8.412,-8.746 18.264,-18.784 22.073,-30.677c3.12,-9.75 2.289,-22.89 2.116,-33.113c-0.389,-22.985 -5.164,-46.25 -22.421,-62.708c-7.7,-7.344 -16.393,-12.454 -27.293,-12.011l-4.661,0.419Z" style="fill:#00af95;"/><path d="M1224.44,452.181c25.387,-1.35 49.24,5.068 70.224,19.501c24.527,16.871 42.842,42.239 47.937,71.948c4.684,27.298 -1.099,57.887 -17.252,80.581c-18.36,25.796 -43.971,41.839 -75.07,47.044l-1.127,0.141c-28.306,3.362 -56.108,-2.295 -78.63,-20.278c-23.535,-18.791 -38.243,-46.427 -41.445,-76.334c-3.404,-31.797 5.468,-63.216 25.864,-88.02c17.708,-21.534 42.227,-32.009 69.499,-34.583Zm-0.218,36.138l-3.908,0.815c-0.731,2.168 -0.152,4.759 0.037,7.003l1.131,12.908c-2.536,0.809 -5.201,1.506 -7.597,2.67l-12.488,-16.04c-10.991,4.734 -19.336,13.392 -27.454,21.91l15.105,13.856l-4.644,8.649l-16.966,-5.879c-2.67,8.459 -5.002,17.174 -5.091,26.106c5.585,0.756 12.059,1.263 17.313,3.35l0.343,7.832c-3.605,3.051 -10.979,5.44 -15.408,7.274c1.779,7.292 3.86,14.57 7.266,21.298c4.954,-1.49 9.906,-4.201 14.836,-5.31l4.111,5.256l-8.495,13.018c6.513,5.715 14.295,12.31 22.493,15.523l8.528,-15.556l8.205,2.836l-0.715,19.698c9.2,0.715 18.638,0.795 27.794,-0.432c1.155,-1.214 0.797,-0.515 1.139,-2.062l-1.113,-17.097l8.278,-2.992l9.771,16.602c7.486,-4.094 15.773,-9.151 21.499,-15.535l-9.736,-13.923l4.839,-5.71c5.233,1.335 10.048,5.004 15.241,6.826c3.985,-7.832 7.516,-15.042 9.799,-23.555l-17.387,-5.783l1.224,-9.129c6.174,-0.971 12.119,-1.987 18.022,-4.102c-1.058,-9.114 -2.831,-17.446 -5.845,-26.122l-17.492,5.154l-4.264,-7.008l13.388,-13.783c-8.396,-9.141 -17.827,-17.625 -29.136,-22.996l-11.524,17.734c-2.411,-1.107 -4.74,-1.997 -7.292,-2.728l0.599,-20.629l-24.406,0.053Zm9.559,42.764c6.015,-0.043 11.396,0.277 16.814,3.156c7.849,4.167 13.802,12.454 15.937,20.996c2.197,8.803 0.46,18.239 -4.703,25.714c-5.576,8.074 -13.492,10.821 -22.713,12.292c-6.788,-0.202 -12.697,-0.685 -18.689,-4.183c-7.179,-4.192 -12.646,-11.192 -14.572,-19.352c-1.93,-8.186 -0.225,-17.917 4.652,-24.736c6.018,-8.41 13.218,-12.355 23.274,-13.887Z" style="fill:#00af95;"/><path d="M469.024,860.597c2.744,-0.117 5.329,-0.39 7.998,0.36c1.738,0.49 0.969,0.534 2.748,0.232l1.712,-0.344c4.488,-0.792 10.219,-0.629 13.975,2.294c3.648,2.835 4.738,7.429 5.257,11.768l-1.492,1.552l-11.26,-0.654c-11.19,-1.344 -22.871,-0.277 -34.163,-0.471c1.458,-4.173 2.936,-7.693 5.417,-11.364c3.229,-2.134 6.037,-2.675 9.808,-3.373Z" style="fill:#00af95;fill-rule:nonzero;"/><path d="M434.228,1072.16c8.532,-1.212 19.617,-0.896 28.154,0.225l1.944,0.265c20.463,2.664 40.588,10.046 57.323,22.306c27.971,20.49 48.619,50.508 53.706,85.173c4.715,32.125 -4.293,63.267 -23.908,89.052c-19.381,25.477 -49.415,41.706 -80.729,46.211c-11.683,0.766 -23.394,1.377 -35.036,-0.323c-22.116,-3.232 -44.347,-14.909 -62.264,-27.898c-22.508,-16.319 -40.838,-47.875 -44.967,-75.282c-4.856,-32.208 1.965,-63.237 21.563,-89.366c20.579,-27.436 50.308,-45.579 84.214,-50.363Zm-48.162,142.563l138.941,-1.069l-0.181,-49.565c-0.006,-8.575 0.909,-19.462 -1.348,-27.344c-2.573,-3.05 -3.173,-3.043 -6.333,-3.442c-9.467,-1.187 -19.39,-0.297 -28.898,-0.338l-53.756,-0.169l-32.315,-0.024c-4.412,0.031 -10.058,-0.913 -14.348,0.301l-2.06,0.862l0.298,80.788Zm-0,-0c-0.313,1.937 -1.067,4.235 -0.39,6.091l-0.344,1.021c-3.458,9.742 -9.772,19.036 -14.783,28.082l41.838,0.043c5.991,0.013 13.664,-0.916 19.458,0.511c4.244,0.979 7.979,1.81 12.362,1.833l24.1,-0.523c4.246,-0.5 8.369,-0.267 12.611,-1.069c5.658,-1.633 13.556,-0.652 19.469,-0.675l41.235,-0.106c0.179,-1.448 -1.994,-4.077 -2.835,-5.406c-4.577,-7.242 -9.519,-14.333 -13.623,-21.856l-0.463,-0.859c0.548,-2.571 0.344,-5.127 0.306,-7.746l-138.941,0.659Z" style="fill:#00af95;"/><path d="M431.845,1250.47c0.454,-1.536 0.798,-4.598 2.277,-5.317c2.929,-1.419 8.885,-0.754 12.225,-0.769l32.042,0.346c1.812,1.969 1.993,3.444 2.529,5.981c-4.242,0.802 -8.365,0.569 -12.611,1.069l-24.1,0.523c-4.383,-0.023 -8.118,-0.854 -12.362,-1.833Z" style="fill:#0e868b;fill-rule:nonzero;"/><path d="M386.066,1214.72l138.941,-0.659c0.038,2.619 0.242,5.175 -0.306,7.746c-0.935,-0.683 -1.306,-1.068 -2.579,-1.352c-2.787,-0.619 -7.025,-0.085 -9.921,-0.066l-23.452,0.129l-103.073,0.293c-0.677,-1.856 0.077,-4.154 0.39,-6.091Z" style="fill:#01a08c;fill-rule:nonzero;"/><path d="M1594,1053.44l3.657,-0.35c29.693,-1.121 59.068,3.841 81.204,25.116c23.233,22.332 28.36,59.102 28.823,89.844c0.545,36.373 -13.194,72.94 -38.802,98.931c-23.171,23.521 -55.044,38.019 -88.207,38.267c-24.058,0.019 -47.098,-6.619 -66.106,-21.706c-29.758,-23.617 -44.985,-59.461 -49.008,-96.484c-3.536,-32.531 4.127,-59.029 24.818,-84.479c26.678,-32.81 62.696,-45.027 103.621,-49.139Zm28.867,100.929c-7.856,1.319 -13.19,4.139 -17.854,10.902c-3.25,4.712 -4.075,11.404 -2.865,16.925c1.013,4.629 4.846,9.01 8.856,11.396c4.896,2.912 9.88,3.491 15.463,3.844c7.052,-0.967 12.933,-2.853 17.252,-8.915c3.206,-4.5 3.825,-11.365 2.531,-16.635c-1.546,-6.294 -6.708,-12.348 -12.468,-15.198c-3.507,-1.734 -7.071,-2.071 -10.915,-2.319Zm-14.058,50.054c-4.34,1.76 -8.002,2.725 -9.792,7.431c-0.952,2.507 -0.442,6.827 -0.454,9.5c-0.031,6.452 -1.465,18.065 1.525,23.848c0.877,1.694 3.446,4.259 5.262,4.648c11.411,2.448 26.263,0.804 38.059,0.715c2.902,-0.529 5.106,-0.286 6.998,-2.819c4.156,-5.56 3.091,-27.488 1.668,-34.44c-0.614,-2.995 -1.889,-4.712 -3.898,-6.952c-6.152,-2.837 -13.191,-2.221 -19.812,-2.227c-6.473,-0.004 -13.106,-0.271 -19.556,0.296Zm-53.771,-49.104c-7.031,3.242 -13.861,7.539 -16.329,15.383c-1.546,4.913 -0.794,11.24 1.8,15.684c3.237,5.55 8.523,8.806 14.72,10.116c3.782,0.8 8.028,0.494 11.88,0.442c6.327,-2.171 12.085,-5.023 14.96,-11.477c2.06,-4.625 1.406,-11.242 -0.467,-15.821c-2.26,-5.523 -7.164,-11.635 -12.881,-13.871c-4.192,-1.639 -9.342,-1.158 -13.683,-0.456Zm-13.352,49.162c-3.996,2.148 -7.165,3.644 -8.479,8.323c-0.8,2.85 -0.303,7.09 -0.311,10.052c-0.019,6.394 -1.714,19.875 2.298,25.032c2.067,2.654 6.352,2.4 9.456,2.55l33.971,0.293c3.111,-0.95 4.727,-0.958 6.581,-3.952c4.259,-6.873 3.071,-29.443 0.027,-36.725c-1.002,-2.4 -2.131,-3.406 -4.239,-4.831l-39.304,-0.742Zm44.802,-101.329c-7.342,2.996 -13.209,6.052 -16.573,13.761c-2.765,6.331 -2.954,13.143 -0.438,19.598c2.35,6.027 7.598,11.51 13.736,13.741c3.462,1.259 7.671,1.621 11.333,1.511c7.608,-2.896 13.681,-7.792 17.152,-15.344c2.686,-5.846 2.454,-12.317 0.111,-18.211c-2.386,-6.008 -6.621,-11.854 -12.892,-14.191c-3.746,-1.396 -8.49,-0.936 -12.429,-0.865Z" style="fill:#065b5d;"/><path d="M1494.07,697.151l0.763,-0.154c28.747,-2.906 58.275,7.387 81.668,23.596c30.49,21.121 52.757,55.004 59.107,91.679c6.679,38.575 -1.615,77.133 -24.678,108.989c-21.318,29.446 -53.65,46.463 -89.027,52.271c-32.477,2.686 -61.073,-4.533 -87.306,-24.271c-30.492,-22.945 -50.823,-56.689 -55.923,-94.568c-5.035,-37.409 6.217,-78.219 29.246,-107.992c22.067,-28.531 50.567,-44.86 86.15,-49.55Zm7.019,26.919c-15.813,3.575 -28.261,9.806 -37.131,23.744c-12.473,19.597 -9.363,44.116 -9.698,66.406c-6.557,0.614 -12.419,0.216 -16.946,5.785c-4.609,5.669 -3.796,15.044 -3.844,21.988l-0.09,34.55c0.007,13.26 -1.162,28.079 0.721,41.193c0.432,3.013 1.307,5.209 3.746,7.182c4.871,3.937 69.229,2.071 80.123,2.085l40.202,0.061c4.836,-0.005 11.733,0.877 16.383,-0.3c2.096,-0.532 3.34,-1.207 4.873,-2.75c2.027,-2.042 4.009,-5.453 4.488,-8.319c1.806,-10.848 0.369,-24.356 0.35,-35.444c-0.027,-17.281 1.16,-35.802 -0.44,-52.977c-0.323,-3.452 -1.533,-6.992 -4.258,-9.275c-4.083,-3.423 -12.052,-3.563 -17.21,-3.827c0.037,-26.073 4.316,-54.956 -16,-75.006c-10.682,-10.54 -23.338,-15.594 -38.198,-15.405l-7.071,0.309Z" style="fill:#065b5d;"/><path d="M1502.6,745.934l5.046,-0.223c9.35,-0.135 17.541,2.813 24.235,9.563c13.815,13.927 9.906,40.796 9.917,59.133l-25.094,0.002l-40.067,0.23c-1.008,-14.632 -3.597,-39.561 3.534,-52.753c5.081,-9.397 12.635,-13.197 22.429,-15.952Z" style="fill:#065b5d;fill-rule:nonzero;"/><path d="M1135.73,1705.02c17.322,1.805 176.313,7.644 249.057,28.04c80.441,23.997 158.41,63.654 222.991,117.693c37.486,31.365 70.417,66.792 102.971,103.119l-41.783,-17.775c-79.5,-33.935 -163.871,-61.969 -250.088,-71.627c-110.852,-12.421 -224.575,0.915 -320.081,62.252c-25.175,16.169 -46.617,35.417 -69.877,53.965c-38.392,-39.215 -85.725,-70.167 -136.871,-90.013c-123.931,-48.087 -270.183,-33.91 -394.687,4.744c-52.225,16.212 -102.155,37.76 -152.153,59.702c3.611,-6.744 11.098,-13.652 16.417,-19.29l37.752,-38.633c90.736,-91.137 216.842,-162.4 344.498,-181.985c50.688,-7.777 102.269,-6.998 153.39,-7.109c4.206,-0.009 7.631,-3.962 8.136,-7.453c2.197,-15.17 4.221,-30.344 6.415,-45.353c12.1,-82.804 21.25,-165.825 25.031,-249.444l2.354,-59.516c-0.035,-10.884 -1.485,-21.613 -2.969,-32.371c-1.512,-10.959 -2.839,-22.088 -6.112,-32.7c-8.836,-28.642 -29.367,-51.79 -50.104,-72.581c-6.702,0.635 -14.552,4.343 -20.642,7.131c-32.175,14.723 -57.325,36.348 -73.769,67.941c-6.35,12.203 -10.891,25.271 -15.625,38.157c-3.173,-7.125 -2.612,-18.136 -2.579,-25.988c0.204,-47.858 28.356,-82.198 60.775,-114.239l-26.831,-1.844c-53.698,0.15 -106.923,28.61 -136.85,73.221c-4.54,6.768 -8.892,13.925 -12.611,21.171c-2.672,5.21 -4.96,11.047 -8.329,15.808c-2.646,3.739 -6.306,7.075 -9.541,10.314c-0.232,-21.993 7.248,-44.614 16.948,-64.168c16.608,-33.479 45.408,-64.436 78.316,-82.275c11.604,-6.288 23.919,-10.396 36.392,-14.561c-10.598,-3.891 -22.952,-5.421 -34.04,-7.704c-31.521,-6.492 -62.76,-9.967 -94.952,-7.502c-17.183,1.315 -33.871,4.373 -51.16,4.965l-1.792,-12.859c27.761,-16.468 59.844,-26.156 91.727,-30.262c-0.954,-3.238 -12.056,-12.259 -14.846,-15.438c-19.81,-22.581 -34.175,-49.131 -36.583,-79.504c-1.223,-15.437 0.165,-31.329 1.115,-46.777c3.839,6.246 5.748,14.644 8.441,21.513c4.919,12.539 12.459,24.81 20.623,35.472c23.917,31.236 57.538,55.894 92.173,73.961c12.217,6.373 25.071,12.864 38.246,16.989c13.875,4.344 28.346,6.946 42.356,10.884c13.452,3.781 26.4,8.829 38.95,14.964c39.75,19.438 72.042,48.915 102.469,80.45l1.137,-76.489c-0.006,-26.444 -0.87,-53.815 -7.304,-79.581c-20.466,-81.98 -96.939,-139.125 -164.541,-182.444l-33.648,-20.804c-7.186,-4.377 -15.263,-8.571 -21.4,-14.38c-8.071,-7.637 -14.767,-19.118 -21.461,-28.168c-24.854,-33.604 -46.685,-68.8 -63.229,-107.286c-9.202,-21.406 -16.539,-44.539 -22.835,-66.952c2.964,3.221 5.098,8.027 7.414,11.786l15.879,25.243c11.346,17.438 24.278,34.057 37.488,50.117c31.337,38.1 71.704,68.621 114.787,92.4l87.138,46.123l-0.031,-9.563c0.104,-57.862 9.458,-123.97 52.225,-166.556c-11.825,60.196 -16.09,120.781 -6.098,181.584c1.494,9.097 3.137,23.414 7.552,31.472c0.867,1.584 4.767,4.244 6.223,5.542l17.504,16.217c14.86,15.054 27.835,31.471 38.319,49.848c15.523,-59.965 31.373,-118.748 41.885,-179.871c0.963,-5.6 4.188,-15.402 3.683,-20.696c-0.456,-4.777 -18.131,-26.79 -21.92,-32.492c-9.648,-14.514 -19.461,-29.483 -27.688,-44.839c-21.479,-40.096 -30.314,-88.704 -35.417,-133.5l1.028,-0.373c1.41,-0.361 8.483,-1.115 9.554,-0.208c0.971,0.822 2.516,8.264 2.964,9.927c6.948,25.804 16.065,50.898 28.159,74.735c6.841,13.483 14.604,27.417 25.343,38.24c7.538,7.593 17.042,13.243 25.99,19.014c8.173,-46.866 9.946,-93.494 9.598,-140.925l20.694,0.052l7.9,314.171l77.391,-49.875c-5.829,-17.308 -11.391,-34.987 -12.754,-53.3c-1.329,-17.906 1.4,-35.104 5.529,-52.45l34.402,0.052c-2.993,26.334 1.244,49.75 9.513,74.594c11.829,-6.433 22.667,-14.498 33.662,-22.235c35.971,-25.313 74.307,-55.542 97.155,-93.778c13.504,-22.597 20.641,-44.941 28.612,-69.641c1.319,20.896 -5.456,47.735 -11.742,67.506c-26.829,84.415 -96.064,135.198 -162.881,187.131c-23.692,18.415 -47.056,36.271 -66.444,59.425c-27.26,32.559 -45.889,70.54 -56.32,111.657c-9.207,36.287 -10.99,74.195 -11.025,111.47l4.764,108.467c21.104,-43.921 48.825,-79.077 87.271,-109.158c15.517,-12.14 31.677,-22.161 44.881,-37.111c33.577,-38.018 47.821,-91.171 57.331,-139.739c2.413,5.308 3.455,11.833 4.83,17.51c8.491,35.056 5.608,68.979 -1.63,103.825c8.523,-3.002 16.907,-7.842 24.815,-12.21c12.992,-7.177 25.713,-14.74 37.071,-24.375c19.264,-16.342 38.704,-42.686 44.517,-67.671c2.427,-10.433 2.637,-21.096 3.535,-31.727c1.083,2.537 1.86,4.758 2.3,7.483c5.862,36.404 -3.996,76.017 -28.308,104.261c-2.536,2.943 -14.89,13.752 -15.232,16.441l42.13,3.738c35.57,4.775 69.981,13.758 102.356,29.433l-6.738,9.525c-27.41,-5.64 -56.129,-8.321 -84.091,-7.067c-75.25,3.375 -154.067,32.327 -205.63,88.621c5.023,1.181 9.465,2.596 14.075,4.919c31.171,15.694 57.68,40.008 78.957,67.385c11.477,14.769 21.579,29.994 27.452,47.886l-1.029,1.829c-0.902,0.025 -1.848,0.352 -2.707,0.071c-0.643,-0.211 -24.995,-25.481 -28.914,-28.694c-25.965,-21.285 -64.19,-44.631 -99.261,-40.817c-15.564,1.692 -30.891,8.157 -40.702,20.8c-15.541,20.025 -21.327,42.619 -25.789,67.055c-8.867,48.564 -6.917,95.958 -2.769,144.86c5.865,69.14 17.302,137.225 28.21,205.685l3.647,23.39Z" style="fill:#065b5d;"/><path d="M1287.53,1375.13c19.7,29.354 29.421,64.335 29.043,99.59c-0.585,54.783 -28.666,111.491 -67.327,149.575c-22.95,-26.373 -38.648,-57.813 -47.952,-91.39c-5.239,-19.3 -6.306,-41.383 -4.141,-61.302c3.845,-35.39 26.275,-63.452 53.42,-84.748c-2.704,13.379 -3.218,26.642 -4.177,40.21c-1.737,24.592 -2.16,48.017 0.365,72.586c7.135,-8.481 14.121,-17.221 19.508,-26.944c16.692,-30.115 21.082,-63.683 21.261,-97.577Z" style="fill:#00af95;fill-rule:nonzero;"/><path d="M750.414,1376.49c1.075,8.473 0.26,17.25 1.073,25.788c3.098,32.55 12.269,69.196 32.375,95.604c8.362,-37.004 9.685,-74.523 5.446,-112.148c15.823,8.954 28.566,23.496 37.591,39.142c19.7,34.16 22.155,75.444 12.221,112.952c-9.721,34.827 -29.498,63.131 -55.023,88.256c-27.348,-25.239 -47.175,-60.904 -57.214,-96.623c-8.879,-31.585 -9.74,-67.719 -0.552,-99.344c5.566,-19.164 14.352,-36.316 24.083,-53.627Z" style="fill:#00af95;fill-rule:nonzero;"/><path d="M642.581,1307.83c3.654,-0.65 8.058,-0.354 11.81,-0.507c-46.367,38.348 -79.756,85.561 -88.262,146.057c30.337,-18.952 58.635,-42.482 82.239,-69.404c10.838,-12.361 20.511,-25.986 30.446,-39.078l1.225,10.844c0.9,14.348 1.279,28.84 -0.275,43.161c-5.517,50.827 -29.473,96.689 -62.915,134.589c-40.418,42.588 -91.583,65.442 -147.535,79.692c-2.277,-1.988 -3.777,-18.15 -4.196,-21.931c-6.21,-56.102 -3.508,-113.727 17.75,-166.611c7.044,-17.523 15.758,-34.433 27.646,-49.189c32.633,-40.515 81.24,-61.955 132.067,-67.623Z" style="fill:#00af95;fill-rule:nonzero;"/><path d="M1375.87,1315.82c23.625,-0.15 47.356,0.839 70.3,7.022c40.402,10.89 76.963,37.413 97.894,73.909c11.873,20.7 19.127,43.616 23.91,66.896c10.19,49.581 9.067,100.641 -4.102,149.543c-48.552,-14.833 -90.319,-36.425 -129.533,-68.97l-26.586,-27.04c-23.66,-28.073 -42.966,-63.74 -50.347,-99.921c-4.994,-24.473 -4.721,-48.923 -2.592,-73.66c30.348,41.366 68.537,75.533 115.462,96.927c-9.241,-38.371 -30.635,-72.911 -59.91,-99.275c-10.615,-9.561 -22.671,-17.469 -34.496,-25.431Z" style="fill:#00af95;fill-rule:nonzero;"/></g></svg>